# xmcd
#
# Track frame offsets: 
#        150
#        24176
#        44567
#        63016
#        81423
#        103951
#        121769
#        142952
#        163674
#        190821
#        207876
#        226241
#        246357
#
# Disc length: 3583 seconds
#
# Revision: 2
# Processed by: cddbd v1.5.2PL0 Copyright (c) Steve Scherf et al.
# Submitted via: ExactAudioCopy v1.0b3
#
DISCID=ab0dfd0d
DTITLE=Rabbit Junk - REframe (Remastered)
DYEAR=2007
DGENRE=Industrial
TTITLE0=Demons (feat. Schizoid)
TTITLE1=In Your Head No One Can Hear You Scream
TTITLE2=Beating Track
TTITLE3=The Big Push
TTITLE4=To All Good Night
TTITLE5=Crutch
TTITLE6=Civilized
TTITLE7=Old Heroes Young Villains
TTITLE8=February War
TTITLE9=Slater
TTITLE10=The Best Revenge
TTITLE11=Millennial Pox
TTITLE12=In The Service Of The Enemy
EXTD=
EXTT0=
EXTT1=
EXTT2=
EXTT3=
EXTT4=
EXTT5=
EXTT6=
EXTT7=
EXTT8=
EXTT9=
EXTT10=
EXTT11=
EXTT12=
PLAYORDER=
